<svg width="200" height="200" viewBox="0 0 200 200" fill="none" xmlns="http://www.w3.org/2000/svg">
  <!-- Background Circle -->
  <circle cx="100" cy="100" r="95" fill="white"/>
  <circle cx="100" cy="100" r="95" stroke="#1e293b" stroke-width="2"/>
  
  <!-- Pixel Grid Pattern (Nest concept) -->
  <g transform="translate(50, 50)">
    <!-- Top pixels -->
    <rect x="40" y="0" width="20" height="20" fill="#334155" rx="2"/>
    
    <!-- Second row -->
    <rect x="20" y="20" width="20" height="20" fill="#475569" rx="2"/>
    <rect x="40" y="20" width="20" height="20" fill="#1e293b" rx="2"/>
    <rect x="60" y="20" width="20" height="20" fill="#475569" rx="2"/>
    
    <!-- Third row -->
    <rect x="0" y="40" width="20" height="20" fill="#64748b" rx="2"/>
    <rect x="20" y="40" width="20" height="20" fill="#334155" rx="2"/>
    <rect x="40" y="40" width="20" height="20" fill="#0f172a" rx="2"/>
    <rect x="60" y="40" width="20" height="20" fill="#334155" rx="2"/>
    <rect x="80" y="40" width="20" height="20" fill="#64748b" rx="2"/>
    
    <!-- Fourth row -->
    <rect x="0" y="60" width="20" height="20" fill="#475569" rx="2"/>
    <rect x="20" y="60" width="20" height="20" fill="#1e293b" rx="2"/>
    <rect x="40" y="60" width="20" height="20" fill="#0f172a" rx="2"/>
    <rect x="60" y="60" width="20" height="20" fill="#1e293b" rx="2"/>
    <rect x="80" y="60" width="20" height="20" fill="#475569" rx="2"/>
    
    <!-- Fifth row (bottom) -->
    <rect x="20" y="80" width="20" height="20" fill="#64748b" rx="2"/>
    <rect x="40" y="80" width="20" height="20" fill="#334155" rx="2"/>
    <rect x="60" y="80" width="20" height="20" fill="#64748b" rx="2"/>
  </g>
  
  <!-- Decorative corner accents -->
  <circle cx="30" cy="30" r="3" fill="#1e293b"/>
  <circle cx="170" cy="30" r="3" fill="#1e293b"/>
  <circle cx="30" cy="170" r="3" fill="#1e293b"/>
  <circle cx="170" cy="170" r="3" fill="#1e293b"/>
</svg>

