<svg width="100" height="100" viewBox="0 0 100 100" fill="none" xmlns="http://www.w3.org/2000/svg">
  <!-- Pixel Grid Pattern (Nest concept) - Centered -->
  <g transform="translate(0, 0)">
    <!-- Top pixels -->
    <rect x="40" y="0" width="20" height="20" fill="#334155" rx="2"/>
    
    <!-- Second row -->
    <rect x="20" y="20" width="20" height="20" fill="#475569" rx="2"/>
    <rect x="40" y="20" width="20" height="20" fill="#1e293b" rx="2"/>
    <rect x="60" y="20" width="20" height="20" fill="#475569" rx="2"/>
    
    <!-- Third row -->
    <rect x="0" y="40" width="20" height="20" fill="#64748b" rx="2"/>
    <rect x="20" y="40" width="20" height="20" fill="#334155" rx="2"/>
    <rect x="40" y="40" width="20" height="20" fill="#0f172a" rx="2"/>
    <rect x="60" y="40" width="20" height="20" fill="#334155" rx="2"/>
    <rect x="80" y="40" width="20" height="20" fill="#64748b" rx="2"/>
    
    <!-- Fourth row -->
    <rect x="0" y="60" width="20" height="20" fill="#475569" rx="2"/>
    <rect x="20" y="60" width="20" height="20" fill="#1e293b" rx="2"/>
    <rect x="40" y="60" width="20" height="20" fill="#0f172a" rx="2"/>
    <rect x="60" y="60" width="20" height="20" fill="#1e293b" rx="2"/>
    <rect x="80" y="60" width="20" height="20" fill="#475569" rx="2"/>
    
    <!-- Fifth row (bottom) -->
    <rect x="20" y="80" width="20" height="20" fill="#64748b" rx="2"/>
    <rect x="40" y="80" width="20" height="20" fill="#334155" rx="2"/>
    <rect x="60" y="80" width="20" height="20" fill="#64748b" rx="2"/>
  </g>
</svg>

