<svg width="48" height="48" viewBox="0 0 48 48" fill="none" xmlns="http://www.w3.org/2000/svg">
  <!-- Background Circle with Gradient -->
  <defs>
    <linearGradient id="bgGradientAudio" x1="0%" y1="0%" x2="100%" y2="100%">
      <stop offset="0%" style="stop-color:#22c55e;stop-opacity:0.2" />
      <stop offset="100%" style="stop-color:#16a34a;stop-opacity:0.3" />
    </linearGradient>
    <linearGradient id="iconGradientAudio" x1="0%" y1="0%" x2="100%" y2="100%">
      <stop offset="0%" style="stop-color:#4ade80;stop-opacity:1" />
      <stop offset="100%" style="stop-color:#22c55e;stop-opacity:1" />
    </linearGradient>
  </defs>
  
  <!-- Background -->
  <rect width="48" height="48" rx="12" fill="url(#bgGradientAudio)"/>
  <rect width="48" height="48" rx="12" fill="#18181b" fill-opacity="0.6"/>
  
  <!-- Waveform Bars -->
  <rect x="12" y="20" width="3" height="8" rx="1.5" fill="url(#iconGradientAudio)"/>
  <rect x="17" y="16" width="3" height="16" rx="1.5" fill="url(#iconGradientAudio)"/>
  <rect x="22" y="12" width="3" height="24" rx="1.5" fill="url(#iconGradientAudio)"/>
  <rect x="27" y="18" width="3" height="12" rx="1.5" fill="url(#iconGradientAudio)"/>
  <rect x="32" y="14" width="3" height="20" rx="1.5" fill="url(#iconGradientAudio)"/>
  
  <!-- Note Symbol -->
  <path d="M36 10 L38 10 L38 26 C38 27.66 36.88 29 35.5 29 C34.12 29 33 27.66 33 26 C33 24.34 34.12 23 35.5 23 C36.04 23 36.54 23.16 36.96 23.44 L36.96 10 Z" fill="#4ade80" opacity="0.7"/>
  
  <!-- Sparkle Effect -->
  <path d="M40 14 L41 16 L43 17 L41 18 L40 20 L39 18 L37 17 L39 16 Z" fill="#86efac" opacity="0.8"/>
</svg>

